solid temp v1.1
facet normal -0.37283339074232164 0.9278983040978054 -0.0
  outer loop
    vertex 1.7191480689556031 10.74743716926072 6.8
    vertex 2.7579529624785226 11.164833288061088 0.0
    vertex 1.7191480689556031 10.74743716926072 0.0
  endloop
endfacet
facet normal -0.37283339074232164 0.9278983040978054 -0.0
  outer loop
    vertex 2.7579529624785226 11.164833288061088 0.0
    vertex 1.7191480689556031 10.74743716926072 6.8
    vertex 2.7579529624785226 11.164833288061088 6.8
  endloop
endfacet
facet normal -0.9197562019257242 -0.3924901642323873 0.0
  outer loop
    vertex 1.7191480689556031 10.74743716926072 6.8
    vertex 2.158550427450745 9.71774755867621 0.0
    vertex 2.158550427450745 9.71774755867621 6.8
  endloop
endfacet
facet normal -0.9197562019257242 -0.3924901642323873 0.0
  outer loop
    vertex 2.158550427450745 9.71774755867621 0.0
    vertex 1.7191480689556031 10.74743716926072 6.8
    vertex 1.7191480689556031 10.74743716926072 0.0
  endloop
endfacet
facet normal -0.11997164800208891 0.9927773182721605 -0.0
  outer loop
    vertex 2.600026158039209 12.273162774827709 6.8
    vertex 3.7114646980658694 12.407473975180375 0.0
    vertex 2.600026158039209 12.273162774827709 0.0
  endloop
endfacet
facet normal -0.11997164800208891 0.9927773182721605 -0.0
  outer loop
    vertex 3.7114646980658694 12.407473975180375 0.0
    vertex 2.600026158039209 12.273162774827709 6.8
    vertex 3.7114646980658694 12.407473975180375 6.8
  endloop
endfacet
facet normal -0.9900001988483587 -0.1410659642869614 0.0
  outer loop
    vertex 2.600026158039209 12.273162774827709 6.8
    vertex 2.7579529624785226 11.164833288061088 0.0
    vertex 2.7579529624785226 11.164833288061088 6.8
  endloop
endfacet
facet normal -0.9900001988483587 -0.1410659642869614 0.0
  outer loop
    vertex 2.7579529624785226 11.164833288061088 0.0
    vertex 2.600026158039209 12.273162774827709 6.8
    vertex 2.600026158039209 12.273162774827709 0.0
  endloop
endfacet
facet normal 0.14106596428696583 0.990000198848358 -3.143309789319203e-19
  outer loop
    vertex 3.845775898418539 13.518912515207038 6.799999999999999
    vertex 4.954105385185154 13.360985710767721 0.0
    vertex 3.845775898418539 13.518912515207038 0.0
  endloop
endfacet
facet normal 0.14106596428696583 0.990000198848358 -3.143309789319203e-19
  outer loop
    vertex 4.954105385185154 13.360985710767721 0.0
    vertex 3.845775898418539 13.518912515207038 6.799999999999999
    vertex 4.954105385185154 13.360985710767721 6.8
  endloop
endfacet
facet normal -0.9927773182721603 0.11997164800209166 -7.488925067200321e-20
  outer loop
    vertex 3.845775898418539 13.518912515207038 6.799999999999999
    vertex 3.7114646980658694 12.407473975180375 0.0
    vertex 3.7114646980658694 12.407473975180375 6.8
  endloop
endfacet
facet normal -0.9927773182721603 0.11997164800209166 -7.488925067200321e-20
  outer loop
    vertex 3.7114646980658694 12.407473975180375 0.0
    vertex 3.845775898418539 13.518912515207038 6.799999999999999
    vertex 3.845775898418539 13.518912515207038 0.0
  endloop
endfacet
facet normal 0.3924901642323873 0.9197562019257242 -4.794030008079904e-19
  outer loop
    vertex 5.371501503985521 14.39979060429064 6.779776999999999
    vertex 6.401191114570031 13.960388245795498 0.0
    vertex 5.371501503985521 14.39979060429064 0.0
  endloop
endfacet
facet normal 0.3924901642323873 0.9197562019257242 -4.794030008079904e-19
  outer loop
    vertex 6.401191114570031 13.960388245795498 0.0
    vertex 5.371501503985521 14.39979060429064 6.779776999999999
    vertex 6.401191114570031 13.960388245795498 6.8
  endloop
endfacet
facet normal -0.9278983040978053 0.3728333907423222 -1.2843144476235994e-19
  outer loop
    vertex 5.371501503985521 14.39979060429064 6.779776999999999
    vertex 4.954105385185154 13.360985710767721 0.0
    vertex 4.954105385185154 13.360985710767721 6.8
  endloop
endfacet
facet normal -0.9278983040978053 0.3728333907423222 -1.2843144476235994e-19
  outer loop
    vertex 4.954105385185154 13.360985710767721 0.0
    vertex 5.371501503985521 14.39979060429064 6.779776999999999
    vertex 5.371501503985521 14.39979060429064 0.0
  endloop
endfacet
facet normal -0.7997845539236343 0.6002871540397757 5.430543461888573e-21
  outer loop
    vertex 7.073227296101555 14.855766656027342 6.799999999999999
    vertex 6.401191114570031 13.960388245795498 0.0
    vertex 6.401191114570031 13.960388245795498 6.8
  endloop
endfacet
facet normal -0.7997845539236343 0.6002871540397757 5.430543461888573e-21
  outer loop
    vertex 6.401191114570031 13.960388245795498 0.0
    vertex 7.073227296101555 14.855766656027342 6.799999999999999
    vertex 7.073227296101555 14.855766656027342 0.0
  endloop
endfacet
facet normal 0.6171668081060383 0.7868323398108422 2.053257843138491e-18
  outer loop
    vertex 7.073227296101555 14.855766656027342 6.799999999999999
    vertex 7.954105385185156 14.16483328806109 0.0
    vertex 7.073227296101555 14.855766656027342 0.0
  endloop
endfacet
facet normal 0.6171668081060383 0.7868323398108422 2.053257843138491e-18
  outer loop
    vertex 7.954105385185156 14.16483328806109 0.0
    vertex 7.073227296101555 14.855766656027342 6.799999999999999
    vertex 7.954105385185156 14.16483328806109 6.8
  endloop
endfacet
facet normal 0.7997845539236342 0.6002871540397756 -0.0
  outer loop
    vertex 8.834983474268757 14.855766656027345 0.0
    vertex 9.50701965580028 13.960388245795501 6.8
    vertex 9.50701965580028 13.960388245795501 0.0
  endloop
endfacet
facet normal 0.7997845539236342 0.6002871540397756 -0.0
  outer loop
    vertex 9.50701965580028 13.960388245795501 6.8
    vertex 8.834983474268757 14.855766656027345 0.0
    vertex 8.834983474268757 14.855766656027345 6.8
  endloop
endfacet
facet normal -0.6171668081060404 0.7868323398108403 -0.0
  outer loop
    vertex 7.954105385185156 14.16483328806109 6.8
    vertex 8.834983474268757 14.855766656027345 0.0
    vertex 7.954105385185156 14.16483328806109 0.0
  endloop
endfacet
facet normal -0.6171668081060404 0.7868323398108403 -0.0
  outer loop
    vertex 8.834983474268757 14.855766656027345 0.0
    vertex 7.954105385185156 14.16483328806109 6.8
    vertex 8.834983474268757 14.855766656027345 6.8
  endloop
endfacet
facet normal 0.927898304097804 0.37283339074232485 1.6539966868029174e-18
  outer loop
    vertex 10.536709266384786 14.399790604290644 0.0
    vertex 10.954105385185157 13.360985710767723 6.8
    vertex 10.954105385185157 13.360985710767723 0.0
  endloop
endfacet
facet normal 0.927898304097804 0.37283339074232485 1.6539966868029174e-18
  outer loop
    vertex 10.954105385185157 13.360985710767723 6.8
    vertex 10.536709266384786 14.399790604290644 0.0
    vertex 10.536709266384786 14.399790604290644 6.800000000000002
  endloop
endfacet
facet normal -0.3924901642323882 0.9197562019257238 1.5594030310647193e-18
  outer loop
    vertex 9.50701965580028 13.960388245795501 6.8
    vertex 10.536709266384786 14.399790604290644 0.0
    vertex 9.50701965580028 13.960388245795501 0.0
  endloop
endfacet
facet normal -0.3924901642323882 0.9197562019257238 1.5594030310647193e-18
  outer loop
    vertex 10.536709266384786 14.399790604290644 0.0
    vertex 9.50701965580028 13.960388245795501 6.8
    vertex 10.536709266384786 14.399790604290644 6.800000000000002
  endloop
endfacet
facet normal 0.992777318272161 0.1199716480020865 -0.0
  outer loop
    vertex 12.06243487195178 13.518912515207036 0.0
    vertex 12.196746072304443 12.407473975180375 6.8
    vertex 12.196746072304443 12.407473975180375 0.0
  endloop
endfacet
facet normal 0.992777318272161 0.1199716480020865 -0.0
  outer loop
    vertex 12.196746072304443 12.407473975180375 6.8
    vertex 12.06243487195178 13.518912515207036 0.0
    vertex 12.06243487195178 13.518912515207036 6.8
  endloop
endfacet
facet normal -0.1410659642869601 0.9900001988483589 -0.0
  outer loop
    vertex 10.954105385185157 13.360985710767723 6.8
    vertex 12.06243487195178 13.518912515207036 0.0
    vertex 10.954105385185157 13.360985710767723 0.0
  endloop
endfacet
facet normal -0.1410659642869601 0.9900001988483589 -0.0
  outer loop
    vertex 12.06243487195178 13.518912515207036 0.0
    vertex 10.954105385185157 13.360985710767723 6.8
    vertex 12.06243487195178 13.518912515207036 6.8
  endloop
endfacet
facet normal 0.9900001988483584 -0.14106596428696333 -0.0
  outer loop
    vertex 13.308184612331106 12.273162774827707 0.0
    vertex 13.150257807891789 11.164833288061091 6.8
    vertex 13.150257807891789 11.164833288061091 0.0
  endloop
endfacet
facet normal 0.9900001988483584 -0.14106596428696333 -0.0
  outer loop
    vertex 13.150257807891789 11.164833288061091 6.8
    vertex 13.308184612331106 12.273162774827707 0.0
    vertex 13.308184612331106 12.273162774827707 6.8
  endloop
endfacet
facet normal 0.11997164800209117 0.9927773182721603 -0.0
  outer loop
    vertex 12.196746072304443 12.407473975180375 6.8
    vertex 13.308184612331106 12.273162774827707 0.0
    vertex 12.196746072304443 12.407473975180375 0.0
  endloop
endfacet
facet normal 0.11997164800209117 0.9927773182721603 -0.0
  outer loop
    vertex 13.308184612331106 12.273162774827707 0.0
    vertex 12.196746072304443 12.407473975180375 6.8
    vertex 13.308184612331106 12.273162774827707 6.8
  endloop
endfacet
facet normal 0.919756201925724 -0.39249016423238786 -0.0
  outer loop
    vertex 14.189062701414713 10.747437169260724 0.0
    vertex 13.74966034291957 9.717747558676217 6.8
    vertex 13.74966034291957 9.717747558676217 0.0
  endloop
endfacet
facet normal 0.919756201925724 -0.39249016423238786 -0.0
  outer loop
    vertex 13.74966034291957 9.717747558676217 6.8
    vertex 14.189062701414713 10.747437169260724 0.0
    vertex 14.189062701414713 10.747437169260724 6.8
  endloop
endfacet
facet normal 0.37283339074232075 0.9278983040978058 -0.0
  outer loop
    vertex 13.150257807891789 11.164833288061091 6.8
    vertex 14.189062701414713 10.747437169260724 0.0
    vertex 13.150257807891789 11.164833288061091 0.0
  endloop
endfacet
facet normal 0.37283339074232075 0.9278983040978058 -0.0
  outer loop
    vertex 14.189062701414713 10.747437169260724 0.0
    vertex 13.150257807891789 11.164833288061091 6.8
    vertex 14.189062701414713 10.747437169260724 6.8
  endloop
endfacet
facet normal 0.7868323398108451 -0.6171668081060346 -3.2726349304315344e-19
  outer loop
    vertex 14.645038753151415 9.045711377144698 0.0
    vertex 13.95410538518516 8.164833288061088 6.8
    vertex 13.95410538518516 8.164833288061088 0.0
  endloop
endfacet
facet normal 0.7868323398108451 -0.6171668081060346 -3.2726349304315344e-19
  outer loop
    vertex 13.95410538518516 8.164833288061088 6.8
    vertex 14.645038753151415 9.045711377144698 0.0
    vertex 14.645038753151415 9.045711377144698 6.799999999999999
  endloop
endfacet
facet normal 0.6002871540397724 0.7997845539236367 5.4305434618809885e-21
  outer loop
    vertex 13.74966034291957 9.717747558676217 6.8
    vertex 14.645038753151415 9.045711377144698 0.0
    vertex 13.74966034291957 9.717747558676217 0.0
  endloop
endfacet
facet normal 0.6002871540397724 0.7997845539236367 5.4305434618809885e-21
  outer loop
    vertex 14.645038753151415 9.045711377144698 0.0
    vertex 13.74966034291957 9.717747558676217 6.8
    vertex 14.645038753151415 9.045711377144698 6.799999999999999
  endloop
endfacet
facet normal 0.6002871540397781 -0.7997845539236326 0.0
  outer loop
    vertex 14.645038753151415 7.283955198977493 6.8
    vertex 13.74966034291957 6.611919017445965 0.0
    vertex 14.645038753151415 7.283955198977493 0.0
  endloop
endfacet
facet normal 0.6002871540397781 -0.7997845539236326 0.0
  outer loop
    vertex 13.74966034291957 6.611919017445965 0.0
    vertex 14.645038753151415 7.283955198977493 6.8
    vertex 13.74966034291957 6.611919017445965 6.8
  endloop
endfacet
facet normal 0.7868323398108402 0.6171668081060407 -0.0
  outer loop
    vertex 13.95410538518516 8.164833288061088 0.0
    vertex 14.645038753151415 7.283955198977493 6.8
    vertex 14.645038753151415 7.283955198977493 0.0
  endloop
endfacet
facet normal 0.7868323398108402 0.6171668081060407 -0.0
  outer loop
    vertex 14.645038753151415 7.283955198977493 6.8
    vertex 13.95410538518516 8.164833288061088 0.0
    vertex 13.95410538518516 8.164833288061088 6.8
  endloop
endfacet
facet normal 0.3728333907423224 -0.927898304097805 0.0
  outer loop
    vertex 14.189062701414713 5.582229406861456 6.8
    vertex 13.150257807891796 5.164833288061089 0.0
    vertex 14.189062701414713 5.582229406861456 0.0
  endloop
endfacet
facet normal 0.3728333907423224 -0.927898304097805 0.0
  outer loop
    vertex 13.150257807891796 5.164833288061089 0.0
    vertex 14.189062701414713 5.582229406861456 6.8
    vertex 13.150257807891796 5.164833288061089 6.8
  endloop
endfacet
facet normal 0.919756201925724 0.39249016423238786 -0.0
  outer loop
    vertex 13.74966034291957 6.611919017445965 0.0
    vertex 14.189062701414713 5.582229406861456 6.8
    vertex 14.189062701414713 5.582229406861456 0.0
  endloop
endfacet
facet normal 0.919756201925724 0.39249016423238786 -0.0
  outer loop
    vertex 14.189062701414713 5.582229406861456 6.8
    vertex 13.74966034291957 6.611919017445965 0.0
    vertex 13.74966034291957 6.611919017445965 6.8
  endloop
endfacet
facet normal 0.11997164800209022 -0.9927773182721605 0.0
  outer loop
    vertex 13.308184612331106 4.056503801294467 6.8
    vertex 12.196746072304444 3.9221926009418007 0.0
    vertex 13.308184612331106 4.056503801294467 0.0
  endloop
endfacet
facet normal 0.11997164800209022 -0.9927773182721605 0.0
  outer loop
    vertex 12.196746072304444 3.9221926009418007 0.0
    vertex 13.308184612331106 4.056503801294467 6.8
    vertex 12.196746072304444 3.9221926009418007 6.8
  endloop
endfacet
facet normal 0.9900001988483593 0.14106596428695756 -0.0
  outer loop
    vertex 13.150257807891796 5.164833288061089 0.0
    vertex 13.308184612331106 4.056503801294467 6.8
    vertex 13.308184612331106 4.056503801294467 0.0
  endloop
endfacet
facet normal 0.9900001988483593 0.14106596428695756 -0.0
  outer loop
    vertex 13.308184612331106 4.056503801294467 6.8
    vertex 13.150257807891796 5.164833288061089 0.0
    vertex 13.150257807891796 5.164833288061089 6.8
  endloop
endfacet
facet normal -0.1410659642869647 -0.9900001988483582 0.0
  outer loop
    vertex 12.062434871951776 2.8107540609151376 6.8
    vertex 10.954105385185162 2.9686808653544543 0.0
    vertex 12.062434871951776 2.8107540609151376 0.0
  endloop
endfacet
facet normal -0.1410659642869647 -0.9900001988483582 0.0
  outer loop
    vertex 10.954105385185162 2.9686808653544543 0.0
    vertex 12.062434871951776 2.8107540609151376 6.8
    vertex 10.954105385185162 2.9686808653544543 6.8
  endloop
endfacet
facet normal 0.9927773182721603 -0.11997164800209117 -0.0
  outer loop
    vertex 12.196746072304444 3.9221926009418007 0.0
    vertex 12.062434871951776 2.8107540609151376 6.8
    vertex 12.062434871951776 2.8107540609151376 0.0
  endloop
endfacet
facet normal 0.9927773182721603 -0.11997164800209117 -0.0
  outer loop
    vertex 12.062434871951776 2.8107540609151376 6.8
    vertex 12.196746072304444 3.9221926009418007 0.0
    vertex 12.196746072304444 3.9221926009418007 6.8
  endloop
endfacet
facet normal -0.3924901642323886 -0.9197562019257236 0.0
  outer loop
    vertex 10.536709266384792 1.9298759718315341 6.8
    vertex 9.507019655800288 2.3692783303266753 0.0
    vertex 10.536709266384792 1.9298759718315341 0.0
  endloop
endfacet
facet normal -0.3924901642323886 -0.9197562019257236 0.0
  outer loop
    vertex 9.507019655800288 2.3692783303266753 0.0
    vertex 10.536709266384792 1.9298759718315341 6.8
    vertex 9.507019655800288 2.3692783303266753 6.8
  endloop
endfacet
facet normal 0.9278983040978046 -0.3728333907423236 -0.0
  outer loop
    vertex 10.954105385185162 2.9686808653544543 0.0
    vertex 10.536709266384792 1.9298759718315341 6.8
    vertex 10.536709266384792 1.9298759718315341 0.0
  endloop
endfacet
facet normal 0.9278983040978046 -0.3728333907423236 -0.0
  outer loop
    vertex 10.536709266384792 1.9298759718315341 6.8
    vertex 10.954105385185162 2.9686808653544543 0.0
    vertex 10.954105385185162 2.9686808653544543 6.8
  endloop
endfacet
facet normal -0.617166808106038 -0.7868323398108424 0.0
  outer loop
    vertex 8.834983474268759 1.4738999200948313 6.8
    vertex 7.954105385185158 2.164833288061084 0.0
    vertex 8.834983474268759 1.4738999200948313 0.0
  endloop
endfacet
facet normal -0.617166808106038 -0.7868323398108424 0.0
  outer loop
    vertex 7.954105385185158 2.164833288061084 0.0
    vertex 8.834983474268759 1.4738999200948313 6.8
    vertex 7.954105385185158 2.164833288061084 6.8
  endloop
endfacet
facet normal 0.799784553923632 -0.600287154039779 -0.0
  outer loop
    vertex 9.507019655800288 2.3692783303266753 0.0
    vertex 8.834983474268759 1.4738999200948313 6.8
    vertex 8.834983474268759 1.4738999200948313 0.0
  endloop
endfacet
facet normal 0.799784553923632 -0.600287154039779 -0.0
  outer loop
    vertex 8.834983474268759 1.4738999200948313 6.8
    vertex 9.507019655800288 2.3692783303266753 0.0
    vertex 9.507019655800288 2.3692783303266753 6.8
  endloop
endfacet
facet normal -0.7997845539236362 -0.600287154039773 0.0
  outer loop
    vertex 6.401191114570032 2.3692783303266745 6.8
    vertex 7.0732272961015505 1.473899920094832 0.0
    vertex 7.0732272961015505 1.473899920094832 6.8
  endloop
endfacet
facet normal -0.7997845539236362 -0.600287154039773 0.0
  outer loop
    vertex 7.0732272961015505 1.473899920094832 0.0
    vertex 6.401191114570032 2.3692783303266745 6.8
    vertex 6.401191114570032 2.3692783303266745 0.0
  endloop
endfacet
facet normal 0.617166808106035 -0.7868323398108447 0.0
  outer loop
    vertex 7.954105385185158 2.164833288061084 6.8
    vertex 7.0732272961015505 1.473899920094832 0.0
    vertex 7.954105385185158 2.164833288061084 0.0
  endloop
endfacet
facet normal 0.617166808106035 -0.7868323398108447 0.0
  outer loop
    vertex 7.0732272961015505 1.473899920094832 0.0
    vertex 7.954105385185158 2.164833288061084 6.8
    vertex 7.0732272961015505 1.473899920094832 6.8
  endloop
endfacet
facet normal -0.927898304097806 -0.3728333907423204 6.421221895774266e-19
  outer loop
    vertex 4.954105385185156 2.968680865354452 6.8
    vertex 5.37150150398552 1.9298759718315341 0.0
    vertex 5.37150150398552 1.9298759718315341 6.7801480000000005
  endloop
endfacet
facet normal -0.927898304097806 -0.3728333907423204 6.421221895774266e-19
  outer loop
    vertex 5.37150150398552 1.9298759718315341 0.0
    vertex 4.954105385185156 2.968680865354452 6.8
    vertex 4.954105385185156 2.968680865354452 0.0
  endloop
endfacet
facet normal 0.39249016423238553 -0.9197562019257249 1.0624027397209612e-18
  outer loop
    vertex 6.401191114570032 2.3692783303266745 6.8
    vertex 5.37150150398552 1.9298759718315341 0.0
    vertex 6.401191114570032 2.3692783303266745 0.0
  endloop
endfacet
facet normal 0.39249016423238553 -0.9197562019257249 1.0624027397209612e-18
  outer loop
    vertex 5.37150150398552 1.9298759718315341 0.0
    vertex 6.401191114570032 2.3692783303266745 6.8
    vertex 5.37150150398552 1.9298759718315341 6.7801480000000005
  endloop
endfacet
facet normal -0.9927773182721603 -0.11997164800209205 0.0
  outer loop
    vertex 3.7114646980658703 3.9221926009417993 6.8
    vertex 3.84577589841854 2.8107540609151327 0.0
    vertex 3.84577589841854 2.8107540609151327 6.8
  endloop
endfacet
facet normal -0.9927773182721603 -0.11997164800209205 0.0
  outer loop
    vertex 3.84577589841854 2.8107540609151327 0.0
    vertex 3.7114646980658703 3.9221926009417993 6.8
    vertex 3.7114646980658703 3.9221926009417993 0.0
  endloop
endfacet
facet normal 0.141065964286967 -0.990000198848358 0.0
  outer loop
    vertex 4.954105385185156 2.968680865354452 6.8
    vertex 3.84577589841854 2.8107540609151327 0.0
    vertex 4.954105385185156 2.968680865354452 0.0
  endloop
endfacet
facet normal 0.141065964286967 -0.990000198848358 0.0
  outer loop
    vertex 3.84577589841854 2.8107540609151327 0.0
    vertex 4.954105385185156 2.968680865354452 6.8
    vertex 3.84577589841854 2.8107540609151327 6.8
  endloop
endfacet
facet normal -0.1199716480020837 -0.9927773182721612 0.0
  outer loop
    vertex 3.7114646980658703 3.9221926009417993 6.8
    vertex 2.600026158039213 4.0565038012944585 0.0
    vertex 3.7114646980658703 3.9221926009417993 0.0
  endloop
endfacet
facet normal -0.1199716480020837 -0.9927773182721612 0.0
  outer loop
    vertex 2.600026158039213 4.0565038012944585 0.0
    vertex 3.7114646980658703 3.9221926009417993 6.8
    vertex 2.600026158039213 4.0565038012944585 6.8
  endloop
endfacet
facet normal -0.9900001988483593 0.14106596428695764 0.0
  outer loop
    vertex 2.757952962478523 5.164833288061085 6.8
    vertex 2.600026158039213 4.0565038012944585 0.0
    vertex 2.600026158039213 4.0565038012944585 6.8
  endloop
endfacet
facet normal -0.9900001988483593 0.14106596428695764 0.0
  outer loop
    vertex 2.600026158039213 4.0565038012944585 0.0
    vertex 2.757952962478523 5.164833288061085 6.8
    vertex 2.757952962478523 5.164833288061085 0.0
  endloop
endfacet
facet normal -0.37283339074232114 -0.9278983040978056 0.0
  outer loop
    vertex 2.757952962478523 5.164833288061085 6.8
    vertex 1.719148068955606 5.58222940686145 0.0
    vertex 2.757952962478523 5.164833288061085 0.0
  endloop
endfacet
facet normal -0.37283339074232114 -0.9278983040978056 0.0
  outer loop
    vertex 1.719148068955606 5.58222940686145 0.0
    vertex 2.757952962478523 5.164833288061085 6.8
    vertex 1.719148068955606 5.58222940686145 6.8
  endloop
endfacet
facet normal -0.9197562019257252 0.39249016423238553 0.0
  outer loop
    vertex 2.158550427450746 6.6119190174459606 6.8
    vertex 1.719148068955606 5.58222940686145 0.0
    vertex 1.719148068955606 5.58222940686145 6.8
  endloop
endfacet
facet normal -0.9197562019257252 0.39249016423238553 0.0
  outer loop
    vertex 1.719148068955606 5.58222940686145 0.0
    vertex 2.158550427450746 6.6119190174459606 6.8
    vertex 2.158550427450746 6.6119190174459606 0.0
  endloop
endfacet
facet normal -0.6002871540397773 -0.7997845539236331 0.0
  outer loop
    vertex 2.158550427450746 6.6119190174459606 6.8
    vertex 1.2631720172189016 7.283955198977487 0.0
    vertex 2.158550427450746 6.6119190174459606 0.0
  endloop
endfacet
facet normal -0.6002871540397773 -0.7997845539236331 0.0
  outer loop
    vertex 1.2631720172189016 7.283955198977487 0.0
    vertex 2.158550427450746 6.6119190174459606 6.8
    vertex 1.2631720172189016 7.283955198977487 6.8
  endloop
endfacet
facet normal -0.7868323398108419 0.6171668081060384 0.0
  outer loop
    vertex 1.9541053851851544 8.164833288061088 6.8
    vertex 1.2631720172189016 7.283955198977487 0.0
    vertex 1.2631720172189016 7.283955198977487 6.8
  endloop
endfacet
facet normal -0.7868323398108419 0.6171668081060384 0.0
  outer loop
    vertex 1.2631720172189016 7.283955198977487 0.0
    vertex 1.9541053851851544 8.164833288061088 6.8
    vertex 1.9541053851851544 8.164833288061088 0.0
  endloop
endfacet
facet normal -0.6002871540397726 0.7997845539236365 -0.0
  outer loop
    vertex 1.2631720172189014 9.045711377144693 6.8
    vertex 2.158550427450745 9.71774755867621 0.0
    vertex 1.2631720172189014 9.045711377144693 0.0
  endloop
endfacet
facet normal -0.6002871540397726 0.7997845539236365 -0.0
  outer loop
    vertex 2.158550427450745 9.71774755867621 0.0
    vertex 1.2631720172189014 9.045711377144693 6.8
    vertex 2.158550427450745 9.71774755867621 6.8
  endloop
endfacet
facet normal -0.7868323398108437 -0.6171668081060364 0.0
  outer loop
    vertex 1.2631720172189014 9.045711377144693 6.8
    vertex 1.9541053851851544 8.164833288061088 0.0
    vertex 1.9541053851851544 8.164833288061088 6.8
  endloop
endfacet
facet normal -0.7868323398108437 -0.6171668081060364 0.0
  outer loop
    vertex 1.9541053851851544 8.164833288061088 0.0
    vertex 1.2631720172189014 9.045711377144693 6.8
    vertex 1.2631720172189014 9.045711377144693 0.0
  endloop
endfacet
facet normal -9.557956331421748e-05 1.1147786425340505e-05 0.9999999953701371
  outer loop
    vertex 2.158550427450746 6.6119190174459606 6.8
    vertex 1.9541053851851544 8.164833288061088 6.8
    vertex 1.2631720172189016 7.283955198977487 6.8
  endloop
endfacet
facet normal -9.557956331421748e-05 1.1147786425340505e-05 0.9999999953701371
  outer loop
    vertex 1.9541053851851544 8.164833288061088 6.8
    vertex 2.158550427450746 6.6119190174459606 6.8
    vertex 2.158550427450745 9.71774755867621 6.8
  endloop
endfacet
facet normal -9.557956331421748e-05 1.1147786425340505e-05 0.9999999953701371
  outer loop
    vertex 2.757952962478523 5.164833288061085 6.8
    vertex 2.158550427450746 6.6119190174459606 6.8
    vertex 1.719148068955606 5.58222940686145 6.8
  endloop
endfacet
facet normal -9.557956331421748e-05 1.1147786425340505e-05 0.9999999953701371
  outer loop
    vertex 2.158550427450746 6.6119190174459606 6.8
    vertex 2.757952962478523 5.164833288061085 6.8
    vertex 2.7579529624785226 11.164833288061088 6.8
  endloop
endfacet
facet normal -9.557956331421748e-05 1.1147786425340505e-05 0.9999999953701371
  outer loop
    vertex 2.7579529624785226 11.164833288061088 6.8
    vertex 3.7114646980658694 12.407473975180375 6.8
    vertex 2.600026158039209 12.273162774827709 6.8
  endloop
endfacet
facet normal -9.557956331421748e-05 1.1147786425340505e-05 0.9999999953701371
  outer loop
    vertex 3.7114646980658694 12.407473975180375 6.8
    vertex 2.7579529624785226 11.164833288061088 6.8
    vertex 2.757952962478523 5.164833288061085 6.8
  endloop
endfacet
facet normal -9.557956331421748e-05 1.1147786425340505e-05 0.9999999953701371
  outer loop
    vertex 3.7114646980658694 12.407473975180375 6.8
    vertex 2.757952962478523 5.164833288061085 6.8
    vertex 3.3253193650470623 6.924332422543912 6.8
  endloop
endfacet
facet normal -9.557956331421748e-05 1.1147786425340505e-05 0.9999999953701371
  outer loop
    vertex 3.7114646980658694 12.407473975180375 6.8
    vertex 3.3253193650470623 6.924332422543912 6.8
    vertex 4.565407112161651 11.553229137424358 6.8
  endloop
endfacet
facet normal -9.557956331421748e-05 1.1147786425340505e-05 0.9999999953701371
  outer loop
    vertex 3.7114646980658694 12.407473975180375 6.8
    vertex 4.565407112161651 11.553229137424358 6.8
    vertex 3.845775898418539 13.518912515207038 6.799999999999999
  endloop
endfacet
facet normal -9.557956331421748e-05 1.1147786425340505e-05 0.9999999953701371
  outer loop
    vertex 3.845775898418539 13.518912515207038 6.799999999999999
    vertex 4.565407112161651 11.553229137424358 6.8
    vertex 4.954105385185154 13.360985710767721 6.8
  endloop
endfacet
facet normal -9.557956331421748e-05 1.1147786425340505e-05 0.9999999953701371
  outer loop
    vertex 4.954105385185154 13.360985710767721 6.8
    vertex 4.565407112161651 11.553229137424358 6.8
    vertex 9.194193132299748 12.793730002941532 6.8
  endloop
endfacet
facet normal -9.557956331421748e-05 1.1147786425340505e-05 0.9999999953701371
  outer loop
    vertex 4.954105385185154 13.360985710767721 6.8
    vertex 9.194193132299748 12.793730002941532 6.8
    vertex 6.401191114570031 13.960388245795498 6.8
  endloop
endfacet
facet normal -9.557956331421748e-05 1.1147786425340505e-05 0.9999999953701371
  outer loop
    vertex 4.954105385185154 13.360985710767721 6.8
    vertex 6.401191114570031 13.960388245795498 6.8
    vertex 5.371501503985521 14.39979060429064 6.779776999999999
  endloop
endfacet
facet normal -9.557956331421748e-05 1.1147786425340505e-05 0.9999999953701371
  outer loop
    vertex 6.401191114570031 13.960388245795498 6.8
    vertex 9.194193132299748 12.793730002941532 6.8
    vertex 7.073227296101555 14.855766656027342 6.799999999999999
  endloop
endfacet
facet normal -9.557956331421748e-05 1.1147786425340505e-05 0.9999999953701371
  outer loop
    vertex 7.073227296101555 14.855766656027342 6.799999999999999
    vertex 9.194193132299748 12.793730002941532 6.8
    vertex 7.954105385185156 14.16483328806109 6.8
  endloop
endfacet
facet normal -9.557956331421748e-05 1.1147786425340505e-05 0.9999999953701371
  outer loop
    vertex 7.954105385185156 14.16483328806109 6.8
    vertex 9.194193132299748 12.793730002941532 6.8
    vertex 8.834983474268757 14.855766656027345 6.8
  endloop
endfacet
facet normal -9.557956331421748e-05 1.1147786425340505e-05 0.9999999953701371
  outer loop
    vertex 8.834983474268757 14.855766656027345 6.8
    vertex 9.194193132299748 12.793730002941532 6.8
    vertex 9.50701965580028 13.960388245795501 6.8
  endloop
endfacet
facet normal -9.557956331421748e-05 1.1147786425340505e-05 0.9999999953701371
  outer loop
    vertex 9.50701965580028 13.960388245795501 6.8
    vertex 9.194193132299748 12.793730002941532 6.8
    vertex 10.888671650160763 11.099402708457246 6.8
  endloop
endfacet
facet normal -9.557956331421748e-05 1.1147786425340505e-05 0.9999999953701371
  outer loop
    vertex 9.50701965580028 13.960388245795501 6.8
    vertex 10.888671650160763 11.099402708457246 6.8
    vertex 10.536709266384786 14.399790604290644 6.800000000000002
  endloop
endfacet
facet normal -9.557956331421748e-05 1.1147786425340505e-05 0.9999999953701371
  outer loop
    vertex 10.536709266384786 14.399790604290644 6.800000000000002
    vertex 10.888671650160763 11.099402708457246 6.8
    vertex 10.954105385185157 13.360985710767723 6.8
  endloop
endfacet
facet normal -9.557956331421748e-05 1.1147786425340505e-05 0.9999999953701371
  outer loop
    vertex 10.954105385185157 13.360985710767723 6.8
    vertex 10.888671650160763 11.099402708457246 6.8
    vertex 12.582891405323252 9.405334153578261 6.8
  endloop
endfacet
facet normal -9.557956331421748e-05 1.1147786425340505e-05 0.9999999953701371
  outer loop
    vertex 10.954105385185157 13.360985710767723 6.8
    vertex 12.582891405323252 9.405334153578261 6.8
    vertex 12.196746072304443 12.407473975180375 6.8
  endloop
endfacet
facet normal -9.557956331421748e-05 1.1147786425340505e-05 0.9999999953701371
  outer loop
    vertex 10.954105385185157 13.360985710767723 6.8
    vertex 12.196746072304443 12.407473975180375 6.8
    vertex 12.06243487195178 13.518912515207036 6.8
  endloop
endfacet
facet normal -9.557956331421748e-05 1.1147786425340505e-05 0.9999999953701371
  outer loop
    vertex 12.196746072304443 12.407473975180375 6.8
    vertex 12.582891405323252 9.405334153578261 6.8
    vertex 13.308184612331106 12.273162774827707 6.8
  endloop
endfacet
facet normal -9.557956331421748e-05 1.1147786425340505e-05 0.9999999953701371
  outer loop
    vertex 13.308184612331106 12.273162774827707 6.8
    vertex 12.582891405323252 9.405334153578261 6.8
    vertex 13.150257807891789 11.164833288061091 6.8
  endloop
endfacet
facet normal -9.557956331421748e-05 1.1147786425340505e-05 0.9999999953701371
  outer loop
    vertex 2.158550427450745 9.71774755867621 6.8
    vertex 2.7579529624785226 11.164833288061088 6.8
    vertex 1.7191480689556031 10.74743716926072 6.8
  endloop
endfacet
facet normal -9.557956331421748e-05 1.1147786425340505e-05 0.9999999953701371
  outer loop
    vertex 2.7579529624785226 11.164833288061088 6.8
    vertex 2.158550427450745 9.71774755867621 6.8
    vertex 2.158550427450746 6.6119190174459606 6.8
  endloop
endfacet
facet normal -9.557956331421748e-05 1.1147786425340505e-05 0.9999999953701371
  outer loop
    vertex 2.158550427450745 9.71774755867621 6.8
    vertex 1.2631720172189014 9.045711377144693 6.8
    vertex 1.9541053851851544 8.164833288061088 6.8
  endloop
endfacet
facet normal -9.557956331421748e-05 1.1147786425340505e-05 0.9999999953701371
  outer loop
    vertex 3.7114646980658703 3.9221926009417993 6.8
    vertex 2.757952962478523 5.164833288061085 6.8
    vertex 2.600026158039213 4.0565038012944585 6.8
  endloop
endfacet
facet normal -9.557956331421748e-05 1.1147786425340505e-05 0.9999999953701371
  outer loop
    vertex 2.757952962478523 5.164833288061085 6.8
    vertex 3.7114646980658703 3.9221926009417993 6.8
    vertex 3.3253193650470623 6.924332422543912 6.8
  endloop
endfacet
facet normal -9.557956331421748e-05 1.1147786425340505e-05 0.9999999953701371
  outer loop
    vertex 3.3253193650470623 6.924332422543912 6.8
    vertex 3.7114646980658703 3.9221926009417993 6.8
    vertex 5.019539120209552 5.2302638676649265 6.8
  endloop
endfacet
facet normal -9.557956331421748e-05 1.1147786425340505e-05 0.9999999953701371
  outer loop
    vertex 5.019539120209552 5.2302638676649265 6.8
    vertex 3.7114646980658703 3.9221926009417993 6.8
    vertex 3.84577589841854 2.8107540609151327 6.8
  endloop
endfacet
facet normal -9.557956331421748e-05 1.1147786425340505e-05 0.9999999953701371
  outer loop
    vertex 5.019539120209552 5.2302638676649265 6.8
    vertex 3.84577589841854 2.8107540609151327 6.8
    vertex 4.954105385185156 2.968680865354452 6.8
  endloop
endfacet
facet normal -9.557956331421748e-05 1.1147786425340505e-05 0.9999999953701371
  outer loop
    vertex 5.019539120209552 5.2302638676649265 6.8
    vertex 4.954105385185156 2.968680865354452 6.8
    vertex 5.37150150398552 1.9298759718315341 6.7801480000000005
  endloop
endfacet
facet normal -9.557956331421748e-05 1.1147786425340505e-05 0.9999999953701371
  outer loop
    vertex 5.019539120209552 5.2302638676649265 6.8
    vertex 5.37150150398552 1.9298759718315341 6.7801480000000005
    vertex 6.714017638070565 3.5359365731806407 6.8
  endloop
endfacet
facet normal -9.557956331421748e-05 1.1147786425340505e-05 0.9999999953701371
  outer loop
    vertex 6.714017638070565 3.5359365731806407 6.8
    vertex 5.37150150398552 1.9298759718315341 6.7801480000000005
    vertex 6.401191114570032 2.3692783303266745 6.8
  endloop
endfacet
facet normal -9.557956331421748e-05 1.1147786425340505e-05 0.9999999953701371
  outer loop
    vertex 6.714017638070565 3.5359365731806407 6.8
    vertex 6.401191114570032 2.3692783303266745 6.8
    vertex 7.0732272961015505 1.473899920094832 6.8
  endloop
endfacet
facet normal -9.557956331421748e-05 1.1147786425340505e-05 0.9999999953701371
  outer loop
    vertex 6.714017638070565 3.5359365731806407 6.8
    vertex 7.0732272961015505 1.473899920094832 6.8
    vertex 7.954105385185158 2.164833288061084 6.8
  endloop
endfacet
facet normal -9.557956331421748e-05 1.1147786425340505e-05 0.9999999953701371
  outer loop
    vertex 6.714017638070565 3.5359365731806407 6.8
    vertex 7.954105385185158 2.164833288061084 6.8
    vertex 11.34280365820866 4.776437438697817 6.8
  endloop
endfacet
facet normal -9.557956331421748e-05 1.1147786425340505e-05 0.9999999953701371
  outer loop
    vertex 11.34280365820866 4.776437438697817 6.8
    vertex 7.954105385185158 2.164833288061084 6.8
    vertex 9.507019655800288 2.3692783303266753 6.8
  endloop
endfacet
facet normal -9.557956331421748e-05 1.1147786425340505e-05 0.9999999953701371
  outer loop
    vertex 9.507019655800288 2.3692783303266753 6.8
    vertex 7.954105385185158 2.164833288061084 6.8
    vertex 8.834983474268759 1.4738999200948313 6.8
  endloop
endfacet
facet normal -9.557956331421748e-05 1.1147786425340505e-05 0.9999999953701371
  outer loop
    vertex 11.34280365820866 4.776437438697817 6.8
    vertex 9.507019655800288 2.3692783303266753 6.8
    vertex 10.536709266384792 1.9298759718315341 6.8
  endloop
endfacet
facet normal -9.557956331421748e-05 1.1147786425340505e-05 0.9999999953701371
  outer loop
    vertex 11.34280365820866 4.776437438697817 6.8
    vertex 10.536709266384792 1.9298759718315341 6.8
    vertex 10.954105385185162 2.9686808653544543 6.8
  endloop
endfacet
facet normal -9.557956331421748e-05 1.1147786425340505e-05 0.9999999953701371
  outer loop
    vertex 11.34280365820866 4.776437438697817 6.8
    vertex 10.954105385185162 2.9686808653544543 6.8
    vertex 12.062434871951776 2.8107540609151376 6.8
  endloop
endfacet
facet normal -9.557956331421748e-05 1.1147786425340505e-05 0.9999999953701371
  outer loop
    vertex 11.34280365820866 4.776437438697817 6.8
    vertex 12.062434871951776 2.8107540609151376 6.8
    vertex 12.582891405323252 9.405334153578261 6.8
  endloop
endfacet
facet normal -9.557956331421748e-05 1.1147786425340505e-05 0.9999999953701371
  outer loop
    vertex 12.582891405323252 9.405334153578261 6.8
    vertex 12.062434871951776 2.8107540609151376 6.8
    vertex 12.196746072304444 3.9221926009418007 6.8
  endloop
endfacet
facet normal -9.557956331421748e-05 1.1147786425340505e-05 0.9999999953701371
  outer loop
    vertex 12.582891405323252 9.405334153578261 6.8
    vertex 12.196746072304444 3.9221926009418007 6.8
    vertex 13.150257807891796 5.164833288061089 6.8
  endloop
endfacet
facet normal -9.557956331421748e-05 1.1147786425340505e-05 0.9999999953701371
  outer loop
    vertex 13.150257807891796 5.164833288061089 6.8
    vertex 12.196746072304444 3.9221926009418007 6.8
    vertex 13.308184612331106 4.056503801294467 6.8
  endloop
endfacet
facet normal -9.557956331421748e-05 1.1147786425340505e-05 0.9999999953701371
  outer loop
    vertex 12.582891405323252 9.405334153578261 6.8
    vertex 13.150257807891796 5.164833288061089 6.8
    vertex 13.150257807891789 11.164833288061091 6.8
  endloop
endfacet
facet normal -9.557956331421748e-05 1.1147786425340505e-05 0.9999999953701371
  outer loop
    vertex 13.74966034291957 6.611919017445965 6.8
    vertex 13.95410538518516 8.164833288061088 6.8
    vertex 13.74966034291957 9.717747558676217 6.8
  endloop
endfacet
facet normal -9.557956331421748e-05 1.1147786425340505e-05 0.9999999953701371
  outer loop
    vertex 13.95410538518516 8.164833288061088 6.8
    vertex 13.74966034291957 6.611919017445965 6.8
    vertex 14.645038753151415 7.283955198977493 6.8
  endloop
endfacet
facet normal -9.557956331421748e-05 1.1147786425340505e-05 0.9999999953701371
  outer loop
    vertex 14.645038753151415 9.045711377144698 6.799999999999999
    vertex 13.74966034291957 9.717747558676217 6.8
    vertex 13.95410538518516 8.164833288061088 6.8
  endloop
endfacet
facet normal -9.557956331421748e-05 1.1147786425340505e-05 0.9999999953701371
  outer loop
    vertex 14.189062701414713 5.582229406861456 6.8
    vertex 13.74966034291957 6.611919017445965 6.8
    vertex 13.150257807891796 5.164833288061089 6.8
  endloop
endfacet
facet normal -9.557956331421748e-05 1.1147786425340505e-05 0.9999999953701371
  outer loop
    vertex 13.150257807891789 11.164833288061091 6.8
    vertex 13.74966034291957 9.717747558676217 6.8
    vertex 14.189062701414713 10.747437169260724 6.8
  endloop
endfacet
facet normal -9.557956331421748e-05 1.1147786425340505e-05 0.9999999953701371
  outer loop
    vertex 13.74966034291957 9.717747558676217 6.8
    vertex 13.150257807891789 11.164833288061091 6.8
    vertex 13.150257807891796 5.164833288061089 6.8
  endloop
endfacet
facet normal -9.557956331421748e-05 1.1147786425340505e-05 0.9999999953701371
  outer loop
    vertex 13.74966034291957 9.717747558676217 6.8
    vertex 13.150257807891796 5.164833288061089 6.8
    vertex 13.74966034291957 6.611919017445965 6.8
  endloop
endfacet
facet normal -0.70707522627699 -0.7071383346880181 -0.0
  outer loop
    vertex 12.582891405323252 9.405334153578261 6.8
    vertex 10.888671650160763 11.099402708457246 0.0
    vertex 12.582891405323252 9.405334153578261 0.0
  endloop
endfacet
facet normal -0.70707522627699 -0.7071383346880181 -0.0
  outer loop
    vertex 10.888671650160763 11.099402708457246 0.0
    vertex 12.582891405323252 9.405334153578261 6.8
    vertex 10.888671650160763 11.099402708457246 6.8
  endloop
endfacet
facet normal -0.7070752262769893 -0.7071383346880189 -0.0
  outer loop
    vertex 10.888671650160763 11.099402708457246 6.8
    vertex 9.194193132299748 12.793730002941532 0.0
    vertex 10.888671650160763 11.099402708457246 0.0
  endloop
endfacet
facet normal -0.7070752262769893 -0.7071383346880189 -0.0
  outer loop
    vertex 9.194193132299748 12.793730002941532 0.0
    vertex 10.888671650160763 11.099402708457246 6.8
    vertex 9.194193132299748 12.793730002941532 6.8
  endloop
endfacet
facet normal 0.2588621486911519 -0.9659142756865124 -0.0
  outer loop
    vertex 9.194193132299748 12.793730002941532 6.8
    vertex 4.565407112161651 11.553229137424358 0.0
    vertex 9.194193132299748 12.793730002941532 0.0
  endloop
endfacet
facet normal 0.2588621486911519 -0.9659142756865124 -0.0
  outer loop
    vertex 4.565407112161651 11.553229137424358 0.0
    vertex 9.194193132299748 12.793730002941532 6.8
    vertex 4.565407112161651 11.553229137424358 6.8
  endloop
endfacet
facet normal 0.9659373749681417 -0.2587759409984935 -0.0
  outer loop
    vertex 4.565407112161651 11.553229137424358 0.0
    vertex 3.3253193650470623 6.924332422543912 6.8
    vertex 3.3253193650470623 6.924332422543912 0.0
  endloop
endfacet
facet normal 0.9659373749681417 -0.2587759409984935 -0.0
  outer loop
    vertex 3.3253193650470623 6.924332422543912 6.8
    vertex 4.565407112161651 11.553229137424358 0.0
    vertex 4.565407112161651 11.553229137424358 6.8
  endloop
endfacet
facet normal 0.7070752262769897 0.7071383346880185 0.0
  outer loop
    vertex 3.3253193650470623 6.924332422543912 6.8
    vertex 5.019539120209552 5.2302638676649265 0.0
    vertex 3.3253193650470623 6.924332422543912 0.0
  endloop
endfacet
facet normal 0.7070752262769897 0.7071383346880185 0.0
  outer loop
    vertex 5.019539120209552 5.2302638676649265 0.0
    vertex 3.3253193650470623 6.924332422543912 6.8
    vertex 5.019539120209552 5.2302638676649265 6.8
  endloop
endfacet
facet normal 0.7070752262769894 0.7071383346880187 0.0
  outer loop
    vertex 5.019539120209552 5.2302638676649265 6.8
    vertex 6.714017638070565 3.5359365731806407 0.0
    vertex 5.019539120209552 5.2302638676649265 0.0
  endloop
endfacet
facet normal 0.7070752262769894 0.7071383346880187 0.0
  outer loop
    vertex 6.714017638070565 3.5359365731806407 0.0
    vertex 5.019539120209552 5.2302638676649265 6.8
    vertex 6.714017638070565 3.5359365731806407 6.8
  endloop
endfacet
facet normal -0.25886214869115237 0.9659142756865123 -0.0
  outer loop
    vertex 6.714017638070565 3.5359365731806407 6.8
    vertex 11.34280365820866 4.776437438697817 0.0
    vertex 6.714017638070565 3.5359365731806407 0.0
  endloop
endfacet
facet normal -0.25886214869115237 0.9659142756865123 -0.0
  outer loop
    vertex 11.34280365820866 4.776437438697817 0.0
    vertex 6.714017638070565 3.5359365731806407 6.8
    vertex 11.34280365820866 4.776437438697817 6.8
  endloop
endfacet
facet normal -0.9659373749681417 0.258775940998494 -0.0
  outer loop
    vertex 12.582891405323252 9.405334153578261 6.8
    vertex 11.34280365820866 4.776437438697817 0.0
    vertex 11.34280365820866 4.776437438697817 6.8
  endloop
endfacet
facet normal -0.9659373749681417 0.258775940998494 -0.0
  outer loop
    vertex 11.34280365820866 4.776437438697817 0.0
    vertex 12.582891405323252 9.405334153578261 6.8
    vertex 12.582891405323252 9.405334153578261 0.0
  endloop
endfacet
endsolid temp v1.1
